<svg width="180" height="53" viewBox="0 0 180 53" fill="none" xmlns="http://www.w3.org/2000/svg">
<path d="M41.676 6.1L36.924 14.308C32.292 11.452 27.528 10.024 22.632 10.024C19.752 10.024 17.424 10.564 15.648 11.644C13.872 12.724 12.984 14.2 12.984 16.072C12.984 16.96 13.224 17.728 13.704 18.376C14.184 19.024 14.94 19.576 15.972 20.032C17.004 20.464 18.06 20.812 19.14 21.076C20.244 21.34 21.66 21.616 23.388 21.904L26.232 22.372C36.936 24.124 42.288 28.828 42.288 36.484C42.288 39.172 41.724 41.584 40.596 43.72C39.468 45.856 37.944 47.584 36.024 48.904C34.104 50.2 31.92 51.196 29.472 51.892C27.024 52.564 24.42 52.9 21.66 52.9C17.724 52.9 13.848 52.336 10.032 51.208C6.24 50.056 3.036 48.424 0.42 46.312L5.64 38.212C7.608 39.772 10.008 41.068 12.84 42.1C15.672 43.132 18.624 43.648 21.696 43.648C24.576 43.648 26.94 43.108 28.788 42.028C30.66 40.948 31.596 39.46 31.596 37.564C31.596 35.908 30.756 34.66 29.076 33.82C27.396 32.98 24.672 32.26 20.904 31.66L17.7 31.156C7.452 29.548 2.328 24.736 2.328 16.72C2.328 14.176 2.868 11.872 3.948 9.808C5.028 7.744 6.492 6.064 8.34 4.768C10.212 3.472 12.348 2.476 14.748 1.78C17.148 1.084 19.704 0.735999 22.416 0.735999C25.968 0.735999 29.28 1.168 32.352 2.032C35.424 2.872 38.532 4.228 41.676 6.1ZM75.2634 17.116V25.468H62.6274V38.212C62.6274 40.276 63.0954 41.788 64.0314 42.748C64.9914 43.684 66.2634 44.152 67.8474 44.152C69.7194 44.152 71.9034 43.396 74.3994 41.884L77.8554 49.228C74.2794 51.676 70.4274 52.9 66.2994 52.9C62.0034 52.9 58.7514 51.712 56.5434 49.336C54.3354 46.96 53.2314 43.504 53.2314 38.968V25.468H46.4994V17.116H53.2314V6.748H62.6274V17.116H75.2634ZM98.6229 16.18C103.639 16.18 107.707 17.872 110.827 21.256C113.971 24.64 115.555 29.056 115.579 34.504C115.579 35.728 115.519 36.784 115.399 37.672H90.6669C91.1469 40.096 92.1789 41.908 93.7629 43.108C95.3469 44.308 97.3029 44.908 99.6309 44.908C101.143 44.908 102.679 44.62 104.239 44.044C105.799 43.444 107.203 42.616 108.451 41.56L113.959 47.608C110.119 51.136 105.163 52.9 99.0909 52.9C93.7149 52.9 89.3469 51.232 85.9869 47.896C82.6509 44.536 80.9829 40.12 80.9829 34.648C80.9829 29.152 82.6149 24.7 85.8789 21.292C89.1429 17.884 93.3909 16.18 98.6229 16.18ZM98.5509 24.28C96.3909 24.28 94.6509 24.892 93.3309 26.116C92.0109 27.34 91.1349 29.056 90.7029 31.264H106.147C105.715 29.032 104.839 27.316 103.519 26.116C102.223 24.892 100.567 24.28 98.5509 24.28ZM165.989 16.18C170.093 16.18 173.405 17.44 175.925 19.96C178.469 22.456 179.741 25.732 179.741 29.788V52H170.381V32.812C170.381 30.316 169.781 28.396 168.581 27.052C167.381 25.684 165.713 25 163.577 25C161.441 25 159.677 25.684 158.285 27.052C156.893 28.42 156.197 30.364 156.197 32.884V52H146.801V32.812C146.801 30.316 146.201 28.396 145.001 27.052C143.825 25.684 142.157 25 139.997 25C137.861 25 136.097 25.684 134.705 27.052C133.313 28.42 132.617 30.364 132.617 32.884V52H123.221V17.116H132.365V21.22C134.621 17.86 138.041 16.18 142.625 16.18C145.121 16.18 147.365 16.708 149.357 17.764C151.373 18.82 152.969 20.284 154.145 22.156C156.569 18.172 160.517 16.18 165.989 16.18Z" fill="black"/>
</svg>
